name rise30.2954peak35.7071fall66.7804.mot
datacolumns 19
datarows 28
range 18.753266 18.798267
endheader
time	ground_force1_vx	ground_force1_vy	ground_force1_vz	ground_force1_px	ground_force1_py	ground_force1_pz	ground_force2_vx	ground_force2_vy	ground_force2_vz	ground_force2_px	ground_force2_py	ground_force2_pz	ground_torque1_x	ground_torque1_y	ground_torque1_z	ground_torque2_x	ground_torque2_y	ground_torque2_z	
18.753266	10.037323	684.951358	40.226145	0.148334	0.000000	0.113565	0.000000	0.000000	0.000000	0.000000	0.000000	0.000000	0.000000	9.732020	0.000000	0.000000	0.000000	0.000000	
18.754941	9.745342	685.728757	40.216850	0.147489	0.000000	0.113554	0.000000	0.000000	0.000000	0.000000	0.000000	0.000000	0.000000	9.752922	0.000000	0.000000	0.000000	0.000000	
18.756596	9.448802	686.555963	40.216930	0.146640	0.000000	0.113545	0.000000	0.000000	0.000000	0.000000	0.000000	0.000000	0.000000	9.778319	0.000000	0.000000	0.000000	0.000000	
18.758262	9.146975	687.430776	40.226118	0.145785	0.000000	0.113537	0.000000	0.000000	0.000000	0.000000	0.000000	0.000000	0.000000	9.808226	0.000000	0.000000	0.000000	0.000000	
18.759934	8.839146	688.351053	40.244137	0.144925	0.000000	0.113529	0.000000	0.000000	0.000000	0.000000	0.000000	0.000000	0.000000	9.842657	0.000000	0.000000	0.000000	0.000000	
18.761604	8.524615	689.314716	40.270703	0.144058	0.000000	0.113523	0.000000	0.000000	0.000000	0.000000	0.000000	0.000000	0.000000	9.881622	0.000000	0.000000	0.000000	0.000000	
18.763262	8.202696	690.319761	40.305528	0.143185	0.000000	0.113517	0.000000	0.000000	0.000000	0.000000	0.000000	0.000000	0.000000	9.925127	0.000000	0.000000	0.000000	0.000000	
18.764943	7.872725	691.364264	40.348322	0.142304	0.000000	0.113512	0.000000	0.000000	0.000000	0.000000	0.000000	0.000000	0.000000	9.973174	0.000000	0.000000	0.000000	0.000000	
18.766604	7.534058	692.446391	40.398792	0.141416	0.000000	0.113508	0.000000	0.000000	0.000000	0.000000	0.000000	0.000000	0.000000	10.025762	0.000000	0.000000	0.000000	0.000000	
18.768270	7.186076	693.564400	40.456643	0.140521	0.000000	0.113505	0.000000	0.000000	0.000000	0.000000	0.000000	0.000000	0.000000	10.082885	0.000000	0.000000	0.000000	0.000000	
18.769944	6.828184	694.716652	40.521584	0.139617	0.000000	0.113502	0.000000	0.000000	0.000000	0.000000	0.000000	0.000000	0.000000	10.144533	0.000000	0.000000	0.000000	0.000000	
18.771596	6.459815	695.901609	40.593322	0.138705	0.000000	0.113500	0.000000	0.000000	0.000000	0.000000	0.000000	0.000000	0.000000	10.210694	0.000000	0.000000	0.000000	0.000000	
18.773261	6.080433	697.117842	40.671570	0.137786	0.000000	0.113499	0.000000	0.000000	0.000000	0.000000	0.000000	0.000000	0.000000	10.281349	0.000000	0.000000	0.000000	0.000000	
18.774935	5.689532	698.364034	40.756044	0.136857	0.000000	0.113498	0.000000	0.000000	0.000000	0.000000	0.000000	0.000000	0.000000	10.356476	0.000000	0.000000	0.000000	0.000000	
18.776598	5.286641	699.638980	40.846466	0.135921	0.000000	0.113498	0.000000	0.000000	0.000000	0.000000	0.000000	0.000000	0.000000	10.436048	0.000000	0.000000	0.000000	0.000000	
18.778281	4.871321	700.941589	40.942562	0.134976	0.000000	0.113499	0.000000	0.000000	0.000000	0.000000	0.000000	0.000000	0.000000	10.520032	0.000000	0.000000	0.000000	0.000000	
18.779942	4.443172	702.270884	41.044067	0.134023	0.000000	0.113500	0.000000	0.000000	0.000000	0.000000	0.000000	0.000000	0.000000	10.608392	0.000000	0.000000	0.000000	0.000000	
18.781600	4.001832	703.626002	41.150725	0.133062	0.000000	0.113501	0.000000	0.000000	0.000000	0.000000	0.000000	0.000000	0.000000	10.701085	0.000000	0.000000	0.000000	0.000000	
18.783262	3.546975	705.006194	41.262284	0.132093	0.000000	0.113503	0.000000	0.000000	0.000000	0.000000	0.000000	0.000000	0.000000	10.798063	0.000000	0.000000	0.000000	0.000000	
18.784929	3.078318	706.410819	41.378506	0.131116	0.000000	0.113505	0.000000	0.000000	0.000000	0.000000	0.000000	0.000000	0.000000	10.899271	0.000000	0.000000	0.000000	0.000000	
18.786602	2.595619	707.839345	41.499160	0.130132	0.000000	0.113508	0.000000	0.000000	0.000000	0.000000	0.000000	0.000000	0.000000	11.004650	0.000000	0.000000	0.000000	0.000000	
18.788264	2.098677	709.291343	41.624027	0.129139	0.000000	0.113512	0.000000	0.000000	0.000000	0.000000	0.000000	0.000000	0.000000	11.114134	0.000000	0.000000	0.000000	0.000000	
18.789932	1.587333	710.766482	41.752899	0.128140	0.000000	0.113515	0.000000	0.000000	0.000000	0.000000	0.000000	0.000000	0.000000	11.227651	0.000000	0.000000	0.000000	0.000000	
18.791604	1.061474	712.264525	41.885577	0.127134	0.000000	0.113519	0.000000	0.000000	0.000000	0.000000	0.000000	0.000000	0.000000	11.345121	0.000000	0.000000	0.000000	0.000000	
18.793264	0.521029	713.785326	42.021877	0.126120	0.000000	0.113523	0.000000	0.000000	0.000000	0.000000	0.000000	0.000000	0.000000	11.466459	0.000000	0.000000	0.000000	0.000000	
18.794930	-0.034030	715.328815	42.161624	0.125101	0.000000	0.113528	0.000000	0.000000	0.000000	0.000000	0.000000	0.000000	0.000000	11.591573	0.000000	0.000000	0.000000	0.000000	
18.796594	-0.603683	716.895000	42.304658	0.124075	0.000000	0.113533	0.000000	0.000000	0.000000	0.000000	0.000000	0.000000	0.000000	11.720364	0.000000	0.000000	0.000000	0.000000	
18.798267	-1.187870	718.483953	42.450829	0.123044	0.000000	0.113538	0.000000	0.000000	0.000000	0.000000	0.000000	0.000000	0.000000	11.852726	0.000000	0.000000	0.000000	0.000000	
